<?xml version="1.0" encoding="UTF-8"?><svg id="Livello_1" xmlns="http://www.w3.org/2000/svg" viewBox="0 0 407.7 512"><defs><style>.cls-1{fill:#fff;}</style></defs><rect class="cls-1" x="3.85" y="205.89" width="400" height="100" transform="translate(-121.24 219.09) rotate(-45)"/><rect class="cls-1" x="153.85" y="55.89" width="100" height="400" transform="translate(-121.24 219.09) rotate(-45)"/><path class="cls-1" d="m0,0h407.7v512H0C0,341.33,0,170.67,0,0Zm283.26,150.18c.75.99,1.23,1.54,1.62,2.15.73,1.16,1.39,2.37,2.12,3.54,2.74,4.33,5.75,8.51,8.21,12.99,4.74,8.63,7.67,17.88,9.5,27.62,1.23,6.53,1.76,13.04,1.76,19.61.07,44.24.02,88.49,0,132.73,0,26.2-.02,52.4-.03,78.6,0,1.51-.02,3.04.13,4.54.14,1.41.62,2.67,2.22,3.14,2.87.84,4.44-.49,4.44-3.87,0-17.77,0-35.55,0-53.32,0-16.78,0-33.56,0-50.34,0-38.65.1-77.3-.1-115.95-.03-6.4-1.01-12.87-2.26-19.16-1.01-5.08-3.08-9.94-4.73-14.88-4.41-13.22-12.33-24.3-21.29-34.71-1.19-1.38-1.88-2.66-1.87-4.53.11-14.09.1-28.18.19-42.27.02-2.66-.78-4.84-2.63-6.76-2.66-2.76-5.79-4.62-9.4-5.89-10.31-3.61-21.08-5.14-31.81-5.78-14.7-.88-29.47-.84-44.21-.62-9.35.14-18.72,1-28,2.15-8.49,1.05-16.87,2.72-24.68,6.75-4.76,2.46-6.68,5.99-6.68,11.02,0,13.5-.03,26.99,0,40.49,0,2.21-.54,4.1-2,5.8-2.39,2.79-4.74,5.62-6.97,8.53-14.07,18.31-20.84,39.3-21.2,62.17-.46,29.16-.22,58.33-.04,87.5.04,7.03.33,14.03,0,21.07-.33,6.8-.1,13.62-.06,20.44.08,15.47.25,30.94.26,46.41,0,13.56-.17,27.12-.24,40.68,0,1.04.1,2.11.36,3.12.42,1.6,1.9,2.38,3.69,2.15,1.73-.23,2.2-1.31,2.2-2.91,0-16.39.04-32.79.06-49.18.02-17.37.05-34.74.06-52.11,0-7.61-.08-15.22-.09-22.83-.01-30.09-.05-60.18.01-90.27.03-14.41,2.28-28.41,8.19-41.67,3.79-8.5,8.26-16.58,14.22-23.76.37-.45,1.12-.59,1.7-.87.16.63.48,1.28.44,1.9-.12,2.03-.52,4.05-.53,6.08-.09,13.82-.23,27.65-.12,41.47.12,15.66.27,31.33.86,46.97.18,4.78,1.43,9.65,2.94,14.22,4.38,13.3,13.2,23.25,24.51,31.14.16.11.34.2.51.3,7.42,4.49,15.49,7.5,23.72,9.96,4.09,1.22,8.46,1.68,12.74,2.02,17.23,1.36,33.69-1.56,49.05-9.74,9.73-5.18,17.86-12.26,23.66-21.73,6.63-10.81,9.39-22.73,9.36-35.37-.06-28.9-.08-57.8-.1-86.7,0-.49.14-.98.31-2.03Zm-74.1,200.21c12.71,0,25.43,0,38.14,0,3.67,0,7.34.08,11.01.09,2.66,0,4.02-1.66,3.38-4.05-.42-1.56-2.28-2.7-4.2-2.57-.98.07-1.96.22-2.93.22-13.5-.04-27-.15-40.5-.14-17.76.01-35.52.1-53.28.2-2.8.01-3.4.75-3.35,3.61.04,2.18.57,2.59,3.37,2.63.39,0,.79,0,1.18,0,15.73,0,31.46,0,47.19,0Z"/><path d="m283.26,150.18c-.17,1.05-.31,1.54-.31,2.03.02,28.9.04,57.8.1,86.7.03,12.65-2.73,24.56-9.36,35.37-5.8,9.46-13.93,16.54-23.66,21.73-15.36,8.18-31.82,11.09-49.05,9.74-4.28-.34-8.65-.79-12.74-2.02-8.23-2.46-16.3-5.47-23.72-9.96-.17-.1-.35-.19-.51-.3-11.31-7.89-20.13-17.83-24.51-31.14-1.51-4.58-2.75-9.44-2.94-14.22-.59-15.65-.74-31.31-.86-46.97-.11-13.82.03-27.65.12-41.47.01-2.03.42-4.05.53-6.08.04-.62-.29-1.27-.44-1.9-.57.28-1.32.42-1.7.87-5.96,7.18-10.43,15.26-14.22,23.76-5.91,13.27-8.16,27.27-8.19,41.67-.06,30.09-.02,60.18-.01,90.27,0,7.61.09,15.22.09,22.83,0,17.37-.03,34.74-.06,52.11-.02,16.39-.06,32.79-.06,49.18,0,1.6-.47,2.69-2.2,2.91-1.79.23-3.27-.54-3.69-2.15-.26-1-.37-2.08-.36-3.12.07-13.56.25-27.12.24-40.68,0-15.47-.18-30.94-.26-46.41-.03-6.81-.26-13.64.06-20.44.34-7.04.05-14.05,0-21.07-.17-29.17-.42-58.34.04-87.5.36-22.87,7.13-43.86,21.2-62.17,2.24-2.91,4.58-5.74,6.97-8.53,1.46-1.7,2.01-3.59,2-5.8-.03-13.5-.01-26.99,0-40.49,0-5.02,1.92-8.56,6.68-11.02,7.81-4.03,16.19-5.7,24.68-6.75,9.28-1.15,18.65-2.01,28-2.15,14.73-.22,29.51-.26,44.21.62,10.74.64,21.51,2.17,31.81,5.78,3.61,1.26,6.74,3.13,9.4,5.89,1.86,1.92,2.65,4.1,2.63,6.76-.09,14.09-.08,28.18-.19,42.27-.01,1.87.68,3.15,1.87,4.53,8.96,10.41,16.88,21.48,21.29,34.71,1.65,4.94,3.72,9.81,4.73,14.88,1.26,6.29,2.23,12.76,2.26,19.16.2,38.65.1,77.3.1,115.95,0,16.78,0,33.56,0,50.34,0,17.77,0,35.55,0,53.32,0,3.38-1.56,4.71-4.44,3.87-1.6-.47-2.08-1.72-2.22-3.14-.14-1.5-.13-3.02-.13-4.54,0-26.2.02-52.4.03-78.6.01-44.24.06-88.49,0-132.73,0-6.56-.54-13.07-1.76-19.61-1.83-9.74-4.76-18.99-9.5-27.62-2.46-4.48-5.47-8.66-8.21-12.99-.74-1.16-1.39-2.37-2.12-3.54-.39-.61-.87-1.16-1.62-2.15Zm-6.91,21.46h-.04c0-10.93,0-21.85,0-32.78,0-14.22-.04-28.44,0-42.66,0-2.2-.85-3.83-2.83-4.47-5.89-1.92-11.75-4.17-17.8-5.33-6.85-1.32-13.9-1.6-20.86-2.34-.46-.05-.91-.09-1.37-.13-4.43-.42-8.85-1.18-13.28-1.19-9.63-.02-19.28.01-28.88.65-10.75.71-21.6,1-32.06,4.2-2.98.91-6.07,1.41-9.11,2.14-6.2,1.48-7.73,3.41-7.74,9.73-.02,24.35-.03,48.71-.05,73.06-.01,22.98-.01,45.95-.03,68.93,0,8.01,1.64,15.66,4.98,22.93,5.8,12.63,15.5,21.39,27.66,27.52,8.58,4.32,17.78,6.49,27.39,7.03,14.54.82,28.59-.69,41.87-7.33,10-5,18.2-11.9,24.21-21.32,2.84-4.44,4.67-9.35,6.01-14.49,1.78-6.78,1.88-13.66,1.9-20.56.05-21.2.02-42.4.02-63.59Zm-167.68,145.43c1.26-2.67,1.23-4.09,0-5.25v5.25Zm.99,18.09c-.18-.02-.36-.05-.54-.07-.34,1.17-.67,2.34-1.1,3.81.55-.04,1.36-.02,1.37-.11.15-1.2.2-2.42.27-3.63Z"/><path d="m209.16,350.39c-15.73,0-31.46,0-47.19,0-.39,0-.79,0-1.18,0-2.8-.04-3.33-.45-3.37-2.63-.05-2.86.55-3.6,3.35-3.61,17.76-.09,35.52-.18,53.28-.2,13.5-.01,27,.1,40.5.14.98,0,1.96-.15,2.93-.22,1.92-.14,3.78,1.01,4.2,2.57.64,2.39-.72,4.05-3.38,4.05-3.67,0-7.34-.08-11.01-.09-12.71-.01-25.43,0-38.14,0Z"/><path class="cls-1" d="m276.35,171.64c0,21.2.03,42.4-.02,63.59-.02,6.9-.12,13.79-1.9,20.56-1.35,5.14-3.18,10.05-6.01,14.49-6.01,9.42-14.21,16.32-24.21,21.32-13.28,6.64-27.33,8.15-41.87,7.33-9.61-.54-18.81-2.71-27.39-7.03-12.16-6.13-21.86-14.89-27.66-27.52-3.34-7.27-4.99-14.92-4.98-22.93.02-22.98.02-45.95.03-68.93.01-24.35.03-48.71.05-73.06,0-6.32,1.54-8.25,7.74-9.73,3.03-.73,6.13-1.23,9.11-2.14,10.46-3.2,21.31-3.49,32.06-4.2,9.6-.64,19.25-.67,28.88-.65,4.43,0,8.85.77,13.28,1.19.46.04.91.09,1.37.13,6.96.73,14.01,1.02,20.86,2.34,6.05,1.17,11.91,3.41,17.8,5.33,1.99.65,2.84,2.27,2.83,4.47-.04,14.22-.01,28.44,0,42.66,0,10.93,0,21.85,0,32.78h.04Z"/><path class="cls-1" d="m108.66,317.06v-5.25c1.23,1.17,1.26,2.59,0,5.25Z"/><path class="cls-1" d="m109.65,335.15c-.07,1.21-.12,2.43-.27,3.63-.01.09-.82.07-1.37.11.42-1.47.76-2.64,1.1-3.81.18.02.36.05.54.07Z"/></svg>